<svg xmlns="http://www.w3.org/2000/svg" width="203" height="137" viewBox="0 0 203 137" version="1.1"><path d="M 86.576 8.916 L 84.842 10.832 81.453 9.416 C 71.484 5.250, 57 12.427, 57 21.533 C 57 22.835, 55.920 24.478, 54.416 25.463 C 51.626 27.291, 47.879 34.521, 48.663 36.564 C 48.928 37.254, 47.762 39.727, 46.072 42.059 L 43 46.300 43 50.115 L 43 53.930 46.250 57.632 C 48.037 59.668, 49.556 62.158, 49.625 63.167 C 49.694 64.175, 49.806 65.907, 49.875 67.015 C 49.944 68.123, 51.541 70.710, 53.425 72.765 L 56.850 76.500 62.420 76.447 L 67.990 76.394 68.538 78.119 C 69.502 81.158, 76.749 86.855, 81.159 88.043 L 85.431 89.193 89.466 88.344 L 93.500 87.495 94 72.579 L 94.500 57.663 95.750 57.248 L 97 56.833 97 93.917 L 97 131 99 131 L 101 131 101.150 85.750 C 101.232 60.862, 101.484 41.705, 101.709 43.177 C 101.934 44.649, 102.767 46.392, 103.559 47.049 L 105 48.245 105 68.699 L 105 89.154 107.923 92.077 L 110.846 95 119.420 95 L 127.994 95 131.747 91.648 C 133.811 89.805, 136.625 88.014, 138 87.669 C 142.361 86.574, 146.830 83.213, 149.710 78.864 L 152.500 74.649 152.798 68.075 C 152.962 64.459, 153.341 59.419, 153.639 56.876 L 154.181 52.251 152.570 49.136 C 151.684 47.423, 150.969 45.791, 150.980 45.510 C 150.991 45.230, 151 43.830, 151 42.400 L 151 39.800 147.552 36.352 C 145.656 34.456, 143.797 31.913, 143.421 30.702 C 142.220 26.834, 139.148 23.304, 135.776 21.918 C 133.974 21.178, 131.150 19.160, 129.500 17.434 L 126.500 14.295 122.545 13.564 C 120.369 13.161, 117.297 11.745, 115.718 10.416 C 111.718 7.051, 108.414 6.432, 104.473 8.312 L 101.156 9.893 99.956 8.447 L 98.755 7 93.533 7 L 88.310 7 86.576 8.916 M 89.299 13.250 C 84.192 18.858, 83.846 22.247, 88.250 23.543 L 91.500 24.500 91.809 26.670 L 92.118 28.841 85.309 28.750 C 81.564 28.701, 77.223 29.021, 75.663 29.463 L 72.826 30.266 73.163 27.968 C 73.363 26.602, 74.760 25.030, 76.609 24.090 L 79.718 22.509 80.697 18.841 L 81.676 15.173 79.291 14.087 C 71.599 10.582, 63.159 15.097, 62.056 23.308 L 61.500 27.443 59.357 28.511 C 58.178 29.098, 56.490 30.178, 55.607 30.911 L 54 32.245 54 36.835 L 54 41.425 51.579 43.462 C 50.248 44.583, 48.863 46.962, 48.500 48.748 L 47.842 51.996 51.003 55.157 L 54.164 58.318 54.418 62.819 L 54.672 67.321 57.395 69.663 L 60.117 72.005 64.309 71.375 C 66.614 71.029, 68.901 70.690, 69.391 70.623 C 69.881 70.555, 71.359 72.550, 72.676 75.055 C 75.441 80.317, 79.294 82.952, 84.694 83.273 L 88.500 83.500 88.811 80.807 L 89.122 78.115 84.311 77.807 L 79.500 77.500 79.198 72.830 C 79.033 70.261, 78.245 67.618, 77.448 66.957 C 73.936 64.042, 76.362 58, 81.045 58 C 86.113 58, 88.627 63.217, 85.098 66.411 C 84.052 67.358, 83.343 68.890, 83.522 69.816 C 83.701 70.742, 83.881 71.838, 83.923 72.250 C 83.966 72.662, 85.125 73, 86.500 73 L 89 73 88.968 65.750 L 88.936 58.500 87.468 56.559 C 83.451 51.248, 91.096 44.496, 95.800 49.200 L 97 50.400 97 45.891 C 97 43.411, 96.339 40.509, 95.532 39.441 C 94.724 38.374, 94.049 35.432, 94.032 32.905 L 94 28.310 95.829 26.655 C 100.115 22.776, 103 25.400, 103 33.179 L 103 38.957 105.510 37.814 L 108.020 36.670 110.510 39.009 C 113.454 41.776, 113.617 43.402, 111.250 46.404 L 109.500 48.624 109.832 55.812 L 110.164 63 112.582 63 L 115 63 115 60.500 C 115 59.125, 114.559 58, 114.019 58 C 110.580 58, 112.359 49.656, 116.048 48.485 C 121.043 46.900, 124.764 53.037, 121.571 57.595 C 120.785 58.717, 119.998 61.404, 119.821 63.567 L 119.500 67.500 114.630 67.589 L 109.761 67.678 109.835 77.589 L 109.909 87.500 112.065 89.250 L 114.222 91 118.861 90.996 L 123.500 90.993 126.812 88.973 L 130.123 86.954 129.812 83.727 L 129.500 80.500 124.669 80.841 L 119.837 81.181 120.169 78.926 L 120.500 76.671 124.500 75.559 L 128.500 74.447 130.500 70.726 C 131.635 68.615, 133.257 67.004, 134.250 67.003 L 136 67 136 69.050 C 136 70.177, 135.343 72.370, 134.539 73.924 L 133.079 76.748 134.259 79.874 C 135.637 83.527, 136.398 83.665, 140.696 81.044 C 144.807 78.537, 147.048 75.062, 147.703 70.177 L 148.226 66.278 146.536 62.717 L 144.846 59.156 140.853 57.558 L 136.861 55.961 137.217 54.230 L 137.572 52.500 140.873 52.657 C 142.751 52.746, 145.211 53.789, 146.582 55.077 C 149.943 58.235, 150.642 56.844, 148.123 52.012 C 146.956 49.772, 146 46.447, 146 44.624 C 146 41.343, 144.173 38.894, 140.850 37.722 C 139.860 37.372, 138.919 35.480, 138.499 32.994 L 137.799 28.848 134.649 26.928 C 132.917 25.872, 130.724 25.006, 129.776 25.004 C 128.827 25.002, 127.353 23.650, 126.500 22 L 124.949 19 122.724 18.882 C 121.501 18.816, 119.909 18.843, 119.186 18.940 C 118.463 19.037, 116.058 17.478, 113.840 15.474 L 109.808 11.831 107.154 12.494 C 105.694 12.858, 103.790 13.796, 102.921 14.578 C 101.130 16.192, 99 16.460, 99 15.071 C 99 11.106, 92.384 9.863, 89.299 13.250 M 115 25.031 C 115 27.108, 115.414 27.374, 120.317 28.452 C 121.992 28.821, 123.816 30.271, 124.817 32.030 L 126.500 34.987 128.750 34.994 L 131 35 131 33.042 C 131 31.965, 129.270 29.265, 127.155 27.042 L 123.310 23 119.155 23 L 115 23 115 25.031 M 98.446 32.087 C 98.077 32.685, 98.275 33.675, 98.887 34.287 L 100 35.400 100 33.200 C 100 30.785, 99.481 30.413, 98.446 32.087 M 58.290 36.519 L 56.612 40.037 57.896 43.590 L 59.181 47.143 57.590 48.900 C 56.716 49.867, 56 51.635, 56 52.829 L 56 55 58.392 55 L 60.783 55 61.406 52.518 C 62.024 50.055, 66.478 47, 69.450 47 L 71 47 71 44.500 C 71 41.785, 69.687 41.408, 65.618 42.955 L 63.106 43.910 62.470 41.906 C 62.105 40.757, 62.509 38.872, 63.417 37.486 C 65.629 34.110, 65.398 33, 62.484 33 L 59.968 33 58.290 36.519 M 106 43 C 106 43.550, 106.450 44, 107 44 C 107.550 44, 108 43.550, 108 43 C 108 42.450, 107.550 42, 107 42 C 106.450 42, 106 42.450, 106 43 M 91 53 C 91 53.550, 91.477 54, 92.059 54 C 92.641 54, 92.840 53.550, 92.500 53 C 92.160 52.450, 91.684 52, 91.441 52 C 91.198 52, 91 52.450, 91 53 M 80 63 C 80 63.550, 80.450 64, 81 64 C 81.550 64, 82 63.550, 82 63 C 82 62.450, 81.550 62, 81 62 C 80.450 62, 80 62.450, 80 63 M 8.750 104.080 L 7 105.099 7 117.443 L 7 129.786 8.582 130.393 C 9.452 130.727, 13.764 131, 18.165 131 L 26.167 131 25.755 129.750 C 25.501 128.980, 22.688 128.308, 18.422 128 L 11.500 127.500 11.500 117.500 L 11.500 107.500 18.491 107 L 25.482 106.500 25.814 104.750 L 26.147 103 18.323 103.030 C 14.020 103.047, 9.713 103.519, 8.750 104.080 M 28.663 103.736 C 28.375 104.202, 28.135 110.526, 28.129 117.791 L 28.118 131 30.587 131 L 33.056 131 32.778 117.262 L 32.500 103.525 30.843 103.207 C 29.932 103.032, 28.951 103.270, 28.663 103.736 M 37.655 104.829 L 36 106.657 36 117.629 L 36 128.600 37.200 129.800 L 38.400 131 47 131 L 55.600 131 56.800 129.800 L 58 128.600 58 116.835 L 58 105.070 56.066 104.035 C 55.002 103.466, 50.797 103, 46.721 103 L 39.310 103 37.655 104.829 M 62.655 104.829 C 61.629 105.962, 61 108.375, 61 111.174 L 61 115.690 62.769 117.291 L 64.539 118.893 71.019 119.196 L 77.500 119.500 77.822 122.310 C 77.999 123.856, 77.607 125.769, 76.950 126.560 L 75.755 128 68.378 128 L 61 128 61 129.500 L 61 131 70.465 131 L 79.930 131 80.965 129.066 C 81.534 128.002, 82 125.147, 82 122.721 L 82 118.310 80.231 116.709 L 78.461 115.107 71.981 114.804 L 65.500 114.500 65.500 111 L 65.500 107.500 73.250 107.208 L 81 106.916 81 104.958 L 81 103 72.655 103 L 64.310 103 62.655 104.829 M 110.736 103.598 C 110.407 103.927, 110.380 104.827, 110.676 105.598 L 111.214 107 115.107 107 L 119 107 119 119 L 119 131 121 131 L 123 131 123 119 L 123 107 127 107 L 131 107 131 105 L 131 103 121.167 103 C 115.758 103, 111.064 103.269, 110.736 103.598 M 133.667 103.667 C 133.300 104.033, 133 110.333, 133 117.667 L 133 131 143.083 131 L 153.167 131 152.753 129.750 L 152.340 128.500 145.170 128.206 L 138 127.912 138 123.456 L 138 119 145.073 119 L 152.147 119 151.813 117.250 L 151.479 115.500 144.740 115.204 L 138 114.909 138 110.954 L 138 107 145 107 L 152 107 152 105 L 152 103 143.167 103 C 138.308 103, 134.033 103.300, 133.667 103.667 M 156.655 104.829 L 155 106.657 155 117.629 L 155 128.600 156.200 129.800 C 156.941 130.541, 160.578 131, 165.700 131 L 174 131 174 129.500 L 174 128 167.750 127.985 C 164.313 127.976, 160.920 127.601, 160.210 127.151 L 158.921 126.333 159.210 116.916 L 159.500 107.500 166.750 107.206 L 174 106.912 174 104.956 L 174 103 166.155 103 L 158.310 103 156.655 104.829 M 177 117 L 177 131 179 131 L 181 131 181 125 L 181 119 187.500 119 L 194 119 194 125 L 194 131 195.500 131 L 197 131 197 117 L 197 103 195.500 103 L 194 103 194 109 L 194 115 187.500 115 L 181 115 181 109 L 181 103 179 103 L 177 103 177 117 M 40.709 107.624 C 40.319 108.014, 40 112.525, 40 117.648 L 40 126.962 42.330 127.547 C 43.612 127.868, 46.649 127.989, 49.080 127.816 L 53.500 127.500 53.500 117.500 L 53.500 107.500 47.459 107.208 C 44.136 107.047, 41.099 107.234, 40.709 107.624" stroke="none" fill="#d42532" fill-rule="evenodd"/></svg>